<svg height="43" viewBox="0 0 50 43" width="50" xmlns="http://www.w3.org/2000/svg"><g fill="#d9ecf2"><path d="m37.0513973 24.6525103c-3.3859799-4.0433562-7.6658318-6.2701574-12.0514464-6.2701574-4.3856147 0-8.6655649 2.2268012-12.0513482 6.2701574-3.0434306 3.6343736-4.86036741 8.2147441-4.86036741 12.2524617 0 1.9614049.60626813 3.4554013 1.80189806 4.4406729 1.18009975.9725364 2.73813405 1.3014139 4.47633865 1.3014139 1.8495699 0 3.9032933-.3725269 5.92114-.7386377 1.7632691-.3199338 3.4287371-.6220772 4.7124371-.6220772 1.1079531 0 2.6701157.2867835 4.3236904.5903852 3.8645661.7096677 8.2448729 1.5138282 10.7752167-.5669565 1.2029036-.9891601 1.8128085-2.4711991 1.8128085-4.4048006 0-4.0377176-1.8168385-8.6180881-4.8603674-12.2524617z"/><path d="m37.2095636 2.79326585c-1.236199-1.77521407-3.0063451-2.79326585-4.8566224-2.79326585-1.8503754 0-3.6204234 1.01814731-4.8566225 2.79326585-1.1355691 1.63077432-1.7610246 3.77234183-1.7610246 6.03026356 0 2.25792169.6253575 4.39948929 1.7610246 6.03026359 1.2361991 1.7751185 3.0063452 2.7932658 4.8566225 2.7932658 1.8503754 0 3.6204234-1.0181473 4.8566224-2.7932658 1.1355691-1.6307743 1.7610246-3.7723419 1.7610246-6.03026359 0-2.25792173-.6253574-4.39958477-1.7610246-6.03026356z"/><path d="m22.5036813 2.79325073c-1.2361991-1.77520446-3.0062471-2.79325073-4.8566225-2.79325073s-3.6205214 1.0181418-4.8566224 2.79325073c-1.1355691 1.63076549-1.7610246 3.7723214-1.7610246 6.03023092 0 2.25790955.6253574 4.39946545 1.7610246 6.03023095 1.236199 1.7752044 3.006247 2.7933462 4.8566224 2.7933462s3.6204234-1.0181418 4.8566225-2.7933462c1.1355691-1.6307655 1.7610246-3.7722259 1.7610246-6.03023095 0-2.25790952-.6254555-4.39956095-1.7610246-6.03023092z"/><path d="m49.7132117 16.8702086c-.4887941-1.6437632-1.5365123-2.8381639-2.9499843-3.3630383-1.1374731-.4223532-2.4214594-.3507405-3.6154983.2017138-1.6455073.7612058-2.9904846 2.333071-3.6898613 4.3124533-.5715263 1.6175147-.6428108 3.3271843-.2005777 4.8143126.488794 1.6437632 1.5365122 2.8381639 2.9500804 3.3630383.4891789.181647 1.0052938.2718999 1.5297782.2718999.6952401 0 1.4051988-.1587272 2.0858164-.4736137 1.6455072-.7612058 2.9904845-2.333071 3.6898612-4.3123582v-.0000951c.5714302-1.6174196.6427147-3.3271843.2003854-4.8143126z"/><path d="m10.5421878 18.0212168c-.69946953-1.9793882-2.04444044-3.551163-3.68984365-4.3123711-1.19412945-.552456-2.47820581-.6239738-3.61557731-.2017144-1.41356144.5249711-2.46127463 1.7193754-2.95006636 3.3630484-.44223097 1.4871327-.37094684 3.1969026.20057681 4.8143271v.0000951c.69956572 1.9793883 2.04444043 3.5511631 3.68984364 4.3123711.68071054.3148876 1.39056966.4736152 2.08580639.4736152.52448189 0 1.0406906-.0903482 1.52977092-.2719007 1.41375384-.5249711 2.46137086-1.7193754 2.95016256-3.3630484.4420386-1.4870377.3707544-3.1968076-.200673-4.8144223z"/></g></svg>